<?xml version="1.0" encoding="utf-8"?>
<!DOCTYPE svg PUBLIC "-//W3C//DTD SVG 20010904//EN" "http://www.w3.org/TR/2001/REC-SVG-20010904/DTD/svg10.dtd">
<svg xmlns="http://www.w3.org/2000/svg" xml:space="preserve" xmlns:xlink="http://www.w3.org/1999/xlink" width="268" height="81.587" viewBox="0 0 268 81.587">
<desc></desc>
<rect x="0" y="0" width="268" height="81.587" style="fill:#ffffff;" />
<line fill="none" style="stroke:#000000; stroke-width:4;" x1="2" y1="0" x2="2" y2="60"/>
<line fill="none" style="stroke:#000000; stroke-width:2;" x1="7" y1="0" x2="7" y2="60"/>
<line fill="none" style="stroke:#000000; stroke-width:2;" x1="13" y1="0" x2="13" y2="60"/>
<line fill="none" style="stroke:#000000; stroke-width:2;" x1="23" y1="0" x2="23" y2="60"/>
<line fill="none" style="stroke:#000000; stroke-width:2;" x1="29" y1="0" x2="29" y2="60"/>
<line fill="none" style="stroke:#000000; stroke-width:4;" x1="40" y1="0" x2="40" y2="60"/>
<line fill="none" style="stroke:#000000; stroke-width:2;" x1="45" y1="0" x2="45" y2="60"/>
<line fill="none" style="stroke:#000000; stroke-width:4;" x1="56" y1="0" x2="56" y2="60"/>
<line fill="none" style="stroke:#000000; stroke-width:2;" x1="61" y1="0" x2="61" y2="60"/>
<line fill="none" style="stroke:#000000; stroke-width:8;" x1="70" y1="0" x2="70" y2="60"/>
<line fill="none" style="stroke:#000000; stroke-width:2;" x1="79" y1="0" x2="79" y2="60"/>
<line fill="none" style="stroke:#000000; stroke-width:2;" x1="85" y1="0" x2="85" y2="60"/>
<line fill="none" style="stroke:#000000; stroke-width:4;" x1="90" y1="0" x2="90" y2="60"/>
<line fill="none" style="stroke:#000000; stroke-width:2;" x1="101" y1="0" x2="101" y2="60"/>
<line fill="none" style="stroke:#000000; stroke-width:2;" x1="105" y1="0" x2="105" y2="60"/>
<line fill="none" style="stroke:#000000; stroke-width:2;" x1="111" y1="0" x2="111" y2="60"/>
<line fill="none" style="stroke:#000000; stroke-width:4;" x1="116" y1="0" x2="116" y2="60"/>
<line fill="none" style="stroke:#000000; stroke-width:2;" x1="123" y1="0" x2="123" y2="60"/>
<line fill="none" style="stroke:#000000; stroke-width:4;" x1="134" y1="0" x2="134" y2="60"/>
<line fill="none" style="stroke:#000000; stroke-width:2;" x1="141" y1="0" x2="141" y2="60"/>
<line fill="none" style="stroke:#000000; stroke-width:2;" x1="145" y1="0" x2="145" y2="60"/>
<line fill="none" style="stroke:#000000; stroke-width:2;" x1="155" y1="0" x2="155" y2="60"/>
<line fill="none" style="stroke:#000000; stroke-width:4;" x1="162" y1="0" x2="162" y2="60"/>
<line fill="none" style="stroke:#000000; stroke-width:6;" x1="171" y1="0" x2="171" y2="60"/>
<line fill="none" style="stroke:#000000; stroke-width:2;" x1="177" y1="0" x2="177" y2="60"/>
<line fill="none" style="stroke:#000000; stroke-width:2;" x1="183" y1="0" x2="183" y2="60"/>
<line fill="none" style="stroke:#000000; stroke-width:8;" x1="192" y1="0" x2="192" y2="60"/>
<line fill="none" style="stroke:#000000; stroke-width:2;" x1="199" y1="0" x2="199" y2="60"/>
<line fill="none" style="stroke:#000000; stroke-width:8;" x1="208" y1="0" x2="208" y2="60"/>
<line fill="none" style="stroke:#000000; stroke-width:2;" x1="217" y1="0" x2="217" y2="60"/>
<line fill="none" style="stroke:#000000; stroke-width:4;" x1="222" y1="0" x2="222" y2="60"/>
<line fill="none" style="stroke:#000000; stroke-width:2;" x1="229" y1="0" x2="229" y2="60"/>
<line fill="none" style="stroke:#000000; stroke-width:6;" x1="235" y1="0" x2="235" y2="60"/>
<line fill="none" style="stroke:#000000; stroke-width:4;" x1="244" y1="0" x2="244" y2="60"/>
<line fill="none" style="stroke:#000000; stroke-width:6;" x1="255" y1="0" x2="255" y2="60"/>
<line fill="none" style="stroke:#000000; stroke-width:2;" x1="261" y1="0" x2="261" y2="60"/>
<line fill="none" style="stroke:#000000; stroke-width:4;" x1="266" y1="0" x2="266" y2="60"/>
<text x="134" y="77.271" text-anchor="middle" style="font-family: Tahoma; font-size: 20px; stroke: none; fill:#000000;">bixnel.ru</text></svg>